# xmcd CD database generated by RipIT
#
# Track frame offsets:
# 150
# 26251
# 43027
# 65096
# 89917
# 110466
# 130619
# 157488
# 180706
# 201218
# 228287
# 249859
# 267644
# 285389
# 300844
#
# Disc length: 4236 seconds
#
# Revision: 2
# Processed by: cddbd v1.5.2PL0 Copyright (c) Steve Scherf et al.
# Submitted via: RipIT 3.9.0 www.suwald.com/ripit/ripit.html on 2010-11-16 at 22:26
#
DISCID=d1108a0f
DTITLE=Rufus Beck - Armistead Maupin - Stadtgeschichten CD2
DYEAR=2001
DGENRE=Other
TTITLE0=14 Stadtgeschichten CD2
TTITLE1=15 Stadtgeschichten CD2
TTITLE2=16 Stadtgeschichten CD2
TTITLE3=17 Stadtgeschichten CD2
TTITLE4=18 Stadtgeschichten CD2
TTITLE5=19 Stadtgeschichten CD2
TTITLE6=20 Stadtgeschichten CD2
TTITLE7=21 Stadtgeschichten CD2
TTITLE8=22 Stadtgeschichten CD2
TTITLE9=23 Stadtgeschichten CD2
TTITLE10=24 Stadtgeschichten CD2
TTITLE11=25 Stadtgeschichten CD2
TTITLE12=26 Stadtgeschichten CD2
TTITLE13=27 Stadtgeschichten CD2
TTITLE14=28 Stadtgeschichten CD2
EXTD=YEAR: 2001\n
EXTT0=
EXTT1=
EXTT2=
EXTT3=
EXTT4=
EXTT5=
EXTT6=
EXTT7=
EXTT8=
EXTT9=
EXTT10=
EXTT11=
EXTT12=
EXTT13=
EXTT14=
PLAYORDER=
